<?xml version="1.0" standalone="no"?>
<!DOCTYPE svg PUBLIC "-//W3C//DTD SVG 20010904//EN" "http://www.w3.org/TR/2001/REC-SVG-20010904/DTD/svg10.dtd">
<!-- Created using Krita: https://krita.org -->
<svg xmlns="http://www.w3.org/2000/svg" 
    xmlns:xlink="http://www.w3.org/1999/xlink"
    xmlns:krita="http://krita.org/namespaces/svg/krita"
    xmlns:sodipodi="http://sodipodi.sourceforge.net/DTD/sodipodi-0.dtd"
    width="11.52pt"
    height="11.52pt"
    viewBox="0 0 11.52 11.52">
<defs/>
<rect id="shape0" transform="matrix(0.999999960263572 0 0 0.999999960263572 1.153977591651 1.15317995637682)" fill="none" stroke="#808080" stroke-width="0.72" stroke-linecap="square" stroke-linejoin="bevel" width="3.8999999904764" height="3.88499999025996" rx="0.464999940910409" ry="0.464999940910409"/><rect id="shape1" transform="matrix(0.999999960263572 0 0 0.999999960263572 2.89912471268737 2.85181949945896)" fill="none" stroke="#808080" stroke-width="0.72" stroke-linecap="square" stroke-linejoin="bevel" width="0.390000090211234" height="0.390000090211234"/><rect id="shape01" transform="matrix(0.999999916589138 0 0 0.999999916589138 6.45625985145975 1.17283420794955)" fill="none" stroke="#808080" stroke-width="0.72" stroke-linecap="square" stroke-linejoin="bevel" width="3.8999999904764" height="3.88499999025996" rx="0.464999940910409" ry="0.464999940910409"/><rect id="shape11" transform="matrix(0.999999916589138 0 0 0.999999916589138 8.23158980009395 2.89965387002253)" fill="none" stroke="#808080" stroke-width="0.72" stroke-linecap="square" stroke-linejoin="bevel" width="0.390000090211234" height="0.390000090211234"/><rect id="shape01" transform="matrix(0.999999909796889 0 0 0.999999909796889 1.07587474304026 6.33455813504027)" fill="none" stroke="#808080" stroke-width="0.72" stroke-linecap="square" stroke-linejoin="bevel" width="3.8999999904764" height="3.88499999025996" rx="0.464999940910409" ry="0.464999940910409"/><rect id="shape11" transform="matrix(0.999999909796889 0 0 0.999999909796889 2.80708779146631 8.04869273370432)" fill="none" stroke="#808080" stroke-width="0.72" stroke-linecap="square" stroke-linejoin="bevel" width="0.390000090211234" height="0.390000090211234"/><path id="shape2" transform="matrix(0.933554762437003 0 0 1.01206419424735 6.34484900588684 6.10681935821848)" fill="none" stroke="#808080" stroke-width="0.48" stroke-linecap="square" stroke-linejoin="bevel" d="M0 0.784889L0.509117 0.0686777L1.14551 0.735833L1.90919 0.0392444C2.10364 0.251818 2.2981 0.464392 2.49255 0.676966L3.25623 0L3.72292 0.578855L4.35931 0.166789" sodipodi:nodetypes="cccccccc"/><ellipse id="shape3" transform="matrix(0.933554762437003 0 0 1.01206419424735 6.22912479971803 7.78224112173502)" rx="0.753907524176693" ry="0.72" cx="0.753907524176693" cy="0.72" fill="none" stroke="#808080" stroke-width="0.48" stroke-linecap="square" stroke-linejoin="bevel"/><rect id="shape4" transform="matrix(0.933554762437003 0 0 1.01206419424735 8.38982138988217 7.76014019218777)" fill="none" stroke="#808080" stroke-width="0.48" stroke-linecap="square" stroke-linejoin="bevel" width="2.20051730436385" height="1.47000003617395"/><path id="shape5" transform="matrix(0.933554762437003 0 0 1.01206419424735 6.28513829030984 10.3560850240182)" fill="none" stroke="#808080" stroke-width="0.48" stroke-linecap="square" stroke-linejoin="miter" stroke-miterlimit="2" d="M0 0.0106066L4.40206 0" sodipodi:nodetypes="cc"/>
</svg>
